<?xml version="1.0" encoding="UTF-8"?><svg id="livetype" xmlns="http://www.w3.org/2000/svg" viewBox="0 0 119.66 40"><defs><style>.cls-1{fill:#8e8e8e;}.cls-2{fill:#b7b7b7;}.cls-3{fill:#fff;}</style></defs><path class="cls-2" d="M110.13,0H9.53c-.37,0-.73,0-1.09,0-.31,0-.61,0-.92.01-.67.02-1.34.06-2,.18-.67.12-1.29.32-1.9.63-.6.31-1.15.71-1.62,1.18-.48.47-.88,1.02-1.18,1.62-.31.61-.51,1.23-.63,1.9-.12.66-.16,1.33-.18,2,0,.31-.01.61-.02.92v23.11c0,.31,0,.61.02.92.02.67.06,1.34.18,2,.12.67.31,1.3.63,1.9.3.6.7,1.14,1.18,1.61.47.48,1.02.88,1.62,1.18.61.31,1.23.51,1.9.63.66.12,1.34.16,2,.18.31,0,.61.01.92.01.37,0,.73,0,1.09,0h100.6c.36,0,.72,0,1.08,0,.3,0,.62,0,.92-.01.67-.02,1.34-.06,2-.18.67-.12,1.29-.32,1.91-.63.6-.3,1.14-.7,1.62-1.18.48-.47.87-1.02,1.18-1.61.31-.61.51-1.23.62-1.9.12-.66.16-1.33.19-2,0-.31,0-.61,0-.92,0-.36,0-.72,0-1.09V9.54c0-.37,0-.73,0-1.09,0-.31,0-.61,0-.92-.02-.67-.06-1.34-.19-2-.11-.67-.31-1.29-.62-1.9-.31-.6-.71-1.15-1.18-1.62-.47-.47-1.02-.87-1.62-1.18-.62-.31-1.24-.51-1.91-.63-.66-.12-1.33-.16-2-.18-.3,0-.62-.01-.92-.01-.36,0-.72,0-1.08,0h0Z"/><path class="cls-3" d="M8.44,39.12c-.3,0-.6,0-.9-.01-.56-.02-1.22-.05-1.87-.16-.61-.11-1.15-.29-1.66-.55-.52-.26-.99-.61-1.4-1.02-.41-.41-.75-.87-1.02-1.4-.26-.5-.44-1.05-.54-1.66-.12-.67-.15-1.36-.17-1.88,0-.21-.01-.91-.01-.91V8.44s0-.69.01-.89c.01-.52.04-1.21.17-1.87.11-.61.28-1.16.54-1.66.27-.52.61-.99,1.02-1.4.41-.41.88-.76,1.4-1.02.51-.26,1.06-.44,1.65-.54.67-.12,1.36-.15,1.88-.16h.9s102.77-.01,102.77-.01h.91c.51.03,1.2.06,1.86.18.6.11,1.15.28,1.67.55.51.26.98.61,1.39,1.02.41.41.75.88,1.02,1.4.26.51.43,1.05.54,1.65.12.63.15,1.28.17,1.89,0,.28,0,.59,0,.89,0,.38,0,.73,0,1.09v20.93c0,.36,0,.72,0,1.08,0,.33,0,.62,0,.93-.02.59-.06,1.24-.17,1.85-.1.61-.28,1.16-.54,1.67-.27.52-.61.99-1.02,1.39-.41.42-.88.76-1.4,1.02-.52.26-1.05.44-1.67.55-.64.12-1.3.15-1.87.16-.29,0-.6.01-.9.01h-1.08s-101.69,0-101.69,0Z"/><path d="M32.59,18.83l1.12,5.54h.02l1.13-5.54h2.34v7.85h-1.45v-6.27h-.02l-1.4,6.27h-1.23l-1.4-6.27h-.02v6.27h-1.45v-7.85h2.35Z"/><path d="M41.83,18.83l2.08,7.85h-1.65l-.36-1.66h-2.09l-.36,1.66h-1.65l2.08-7.85h1.96ZM41.62,23.73l-.76-3.53h-.02l-.76,3.53h1.54Z"/><path d="M47.13,18.83c.55,0,.99.09,1.33.27s.6.44.79.77c.19.33.31.74.38,1.2s.1.99.1,1.57c0,.69-.04,1.29-.13,1.8-.08.51-.23.93-.43,1.26s-.48.58-.83.74c-.34.16-.78.24-1.31.24h-2.5v-7.85h2.6ZM46.82,25.52c.28,0,.5-.05.67-.14.17-.1.3-.25.4-.47.1-.22.17-.51.2-.87.03-.36.05-.81.05-1.34,0-.45-.01-.84-.04-1.18s-.09-.62-.18-.84c-.09-.22-.23-.39-.41-.51s-.42-.17-.72-.17h-.67v5.52h.7Z"/><path d="M55.16,20.13h-2.81v1.85h2.64v1.3h-2.64v2.11h2.92v1.3h-4.5v-7.85h4.39v1.3Z"/><path d="M61.35,18.83c.32,0,.62.03.9.1s.51.18.71.33c.2.15.35.36.46.62.11.26.17.57.17.95,0,.43-.1.79-.3,1.09-.2.3-.5.51-.89.62v.02c.44.06.79.25,1.04.56s.38.74.38,1.27c0,.31-.04.6-.12.88-.08.28-.22.52-.41.73s-.45.38-.76.5c-.31.12-.7.19-1.16.19h-2.67v-7.85h2.65ZM60.74,22.06c.44,0,.76-.08.96-.24.2-.16.3-.42.3-.8s-.09-.64-.28-.79-.47-.23-.87-.23h-.57v2.06h.45ZM60.9,25.52c.38,0,.69-.08.92-.25.24-.17.35-.48.35-.94,0-.23-.03-.42-.09-.57s-.15-.27-.25-.36c-.11-.09-.23-.16-.38-.19-.15-.04-.31-.05-.48-.05h-.68v2.36h.62Z"/><path d="M67.12,21.87h.02l1.1-3.04h1.72l-2.04,4.76v3.09h-1.58v-3.09l-2.04-4.76h1.78l1.03,3.04Z"/><path d="M74.76,18.83v3h1.85v-3h1.58v7.85h-1.58v-3.49h-1.85v3.49h-1.58v-7.85h1.58Z"/><path d="M80.78,24.31c0,.2.01.38.04.54s.07.31.14.43c.07.12.17.22.29.29.12.07.27.1.46.1s.34-.04.46-.1.21-.17.28-.29c.07-.12.12-.26.14-.43.03-.17.04-.35.04-.54v-5.48h1.58v5.48c0,.5-.07.91-.21,1.24-.14.33-.33.59-.56.78-.24.19-.5.32-.8.38s-.61.1-.93.1-.63-.03-.93-.09c-.3-.06-.57-.18-.8-.36-.23-.18-.42-.43-.56-.76-.14-.33-.21-.76-.21-1.29v-5.48h1.58v5.48Z"/><path d="M87.6,18.83l1.12,5.54h.02l1.13-5.54h2.34v7.85h-1.45v-6.27h-.02l-1.4,6.27h-1.23l-1.4-6.27h-.02v6.27h-1.45v-7.85h2.35Z"/><path d="M96.84,18.83l2.08,7.85h-1.65l-.36-1.66h-2.09l-.36,1.66h-1.65l2.08-7.85h1.96ZM96.63,23.73l-.76-3.53h-.02l-.76,3.53h1.54Z"/><path d="M103.21,24.21h.02v-5.38h1.45v7.85h-1.8l-1.94-5.5h-.02v5.5h-1.45v-7.85h1.83l1.91,5.38Z"/><path d="M107.06,24.47c0,.18.01.35.04.5.03.15.08.28.17.38.08.1.19.18.32.24s.31.09.51.09c.24,0,.46-.08.65-.24s.29-.4.29-.73c0-.18-.02-.33-.07-.46s-.13-.24-.24-.35c-.11-.1-.25-.2-.43-.28s-.4-.17-.67-.26c-.35-.12-.66-.25-.91-.39-.26-.14-.47-.3-.64-.49-.17-.19-.3-.4-.38-.65-.08-.25-.12-.53-.12-.85,0-.78.22-1.36.65-1.74s1.03-.57,1.78-.57c.35,0,.68.04.97.12s.55.2.77.37c.22.17.38.39.51.66s.18.59.18.96v.22h-1.52c0-.37-.07-.66-.2-.86s-.35-.3-.66-.3c-.18,0-.32.03-.44.08-.12.05-.21.12-.28.2-.07.08-.12.18-.14.29-.03.11-.04.22-.04.34,0,.24.05.45.15.61s.32.32.66.46l1.22.53c.3.13.55.27.74.41s.34.3.46.46c.11.17.19.35.24.54.04.2.07.42.07.66,0,.83-.24,1.43-.72,1.81-.48.38-1.15.57-2.01.57s-1.54-.19-1.92-.58-.58-.95-.58-1.67v-.32h1.58v.23Z"/><path class="cls-1" d="M33.04,13.33h-.94v3.58h-.86v-3.58h-.94v-.71h2.74v.71Z"/><path class="cls-1" d="M34.28,12.62v1.64h1.01v-1.64h.86v4.28h-.86v-1.9h-1.01v1.9h-.86v-4.28h.86Z"/><path class="cls-1" d="M36.79,12.62h.86v4.28h-.86v-4.28Z"/><path class="cls-1" d="M38.99,15.69c0,.1,0,.19.02.27.02.08.05.15.09.21s.1.1.18.13c.07.03.17.05.28.05.13,0,.25-.04.36-.13.11-.09.16-.22.16-.4,0-.1-.01-.18-.04-.25-.03-.07-.07-.13-.13-.19-.06-.06-.14-.11-.24-.15-.1-.05-.22-.09-.36-.14-.19-.06-.36-.13-.5-.21-.14-.08-.26-.17-.35-.27-.09-.1-.16-.22-.21-.35-.04-.13-.07-.29-.07-.46,0-.42.12-.74.35-.95.24-.21.56-.31.97-.31.19,0,.37.02.53.06.16.04.3.11.42.2.12.09.21.21.28.36.07.15.1.32.1.53v.12h-.83c0-.2-.04-.36-.11-.47s-.19-.17-.36-.17c-.1,0-.18.01-.24.04-.06.03-.12.06-.15.11s-.06.1-.08.16-.02.12-.02.19c0,.13.03.24.08.33.06.09.18.17.36.25l.67.29c.16.07.3.15.4.22.1.08.19.16.25.25.06.09.1.19.13.3.02.11.04.23.04.36,0,.45-.13.78-.39.99-.26.21-.63.31-1.09.31s-.84-.11-1.05-.32-.32-.52-.32-.91v-.17h.86v.13Z"/><path class="cls-1" d="M44.36,12.62c.22,0,.4.04.55.11.15.07.27.17.36.29.09.12.16.26.2.41.04.15.06.31.06.47,0,.22-.03.41-.1.58-.07.16-.16.3-.28.4s-.26.18-.43.23c-.17.05-.35.08-.56.08h-.46v1.71h-.86v-4.28h1.51ZM44.1,14.56c.17,0,.31-.05.42-.16.11-.1.16-.27.16-.49s-.05-.38-.14-.49-.25-.17-.46-.17h-.36v1.3h.38Z"/><path class="cls-1" d="M47.56,12.62c.36,0,.64.09.84.27.2.18.3.46.3.83,0,.29-.06.52-.17.71-.12.18-.3.3-.54.35h0c.22.04.37.11.47.22.1.11.16.28.19.52,0,.08.01.17.02.26,0,.09,0,.2.01.31,0,.23.02.4.04.52.02.12.08.2.16.25v.04h-.94c-.04-.06-.07-.13-.08-.21s-.02-.16-.02-.24l-.02-.82c0-.17-.05-.3-.13-.4s-.2-.14-.38-.14h-.46v1.81h-.86v-4.28h1.6ZM47.19,14.49c.21,0,.37-.05.48-.15.11-.1.17-.26.17-.5,0-.4-.2-.59-.6-.59h-.41v1.24h.36Z"/><path class="cls-1" d="M49.26,13.86c.03-.27.1-.51.2-.71.1-.2.25-.35.44-.46.19-.11.45-.17.77-.17s.58.06.77.17c.19.11.34.26.44.46.1.2.17.43.2.71s.04.57.04.9-.01.63-.04.9c-.03.27-.1.51-.2.7-.1.2-.25.35-.44.45-.19.1-.45.16-.77.16s-.58-.05-.77-.16c-.19-.1-.34-.25-.44-.45-.1-.2-.17-.43-.2-.7-.03-.27-.04-.57-.04-.9s.02-.62.04-.9ZM50.1,15.49c.01.2.04.37.08.49s.1.22.18.28c.08.06.18.09.31.09s.23-.03.31-.09c.08-.06.14-.15.18-.28s.07-.29.08-.49c.01-.2.02-.45.02-.73s0-.53-.02-.73c-.01-.2-.04-.36-.08-.49-.04-.13-.1-.22-.18-.28s-.18-.09-.31-.09-.23.03-.31.09-.14.15-.18.28c-.04.13-.07.29-.08.49-.01.2-.02.44-.02.73s0,.53.02.73Z"/><path class="cls-1" d="M54.85,15.7c0,.46-.11.78-.32.98-.21.19-.54.29-.97.29-.23,0-.42-.03-.56-.09-.15-.06-.26-.15-.35-.26-.09-.11-.15-.25-.18-.4s-.05-.31-.05-.48v-.19h.79v.13c0,.23.03.4.08.51.05.11.15.17.31.17s.26-.06.31-.17c.05-.11.08-.28.08-.51v-3.06h.86v3.08Z"/><path class="cls-1" d="M57.81,13.33h-1.53v1.01h1.44v.71h-1.44v1.15h1.59v.71h-2.45v-4.28h2.39v.71Z"/><path class="cls-1" d="M60.02,13.38c-.07-.14-.21-.21-.4-.21-.11,0-.2.03-.27.09-.07.06-.12.15-.17.28-.04.13-.07.3-.08.51-.02.21-.02.47-.02.77,0,.32.01.59.03.79.02.2.06.35.1.46.05.11.1.18.17.22s.15.06.24.06c.08,0,.15-.01.21-.04.07-.03.12-.08.17-.16s.09-.19.11-.33c.03-.14.04-.33.04-.56h.86c0,.23-.02.45-.05.66-.04.21-.1.39-.2.55-.1.16-.24.28-.41.37-.18.09-.41.13-.69.13-.32,0-.58-.05-.77-.16-.19-.1-.34-.25-.44-.45-.1-.2-.17-.43-.2-.7-.03-.27-.04-.57-.04-.9s.01-.62.04-.9.1-.51.2-.71c.1-.2.25-.35.44-.46.19-.11.45-.17.77-.17s.55.05.73.15c.18.1.31.23.4.38s.14.32.17.5c.02.18.03.34.03.5h-.86c0-.31-.04-.54-.11-.68Z"/><path class="cls-1" d="M64.03,13.33h-.94v3.58h-.86v-3.58h-.94v-.71h2.74v.71Z"/><path class="cls-1" d="M65.89,12.62h.86v4.28h-.86v-4.28Z"/><path class="cls-1" d="M68.09,15.69c0,.1,0,.19.02.27.02.08.05.15.09.21s.1.1.18.13c.07.03.17.05.28.05.13,0,.25-.04.36-.13.11-.09.16-.22.16-.4,0-.1-.01-.18-.04-.25-.03-.07-.07-.13-.13-.19-.06-.06-.14-.11-.24-.15-.1-.05-.22-.09-.36-.14-.19-.06-.36-.13-.5-.21-.14-.08-.26-.17-.35-.27s-.16-.22-.21-.35c-.04-.13-.07-.29-.07-.46,0-.42.12-.74.35-.95s.56-.31.97-.31c.19,0,.37.02.53.06s.3.11.42.2c.12.09.21.21.28.36.07.15.1.32.1.53v.12h-.83c0-.2-.04-.36-.11-.47s-.19-.17-.36-.17c-.1,0-.18.01-.24.04-.06.03-.11.06-.15.11s-.06.1-.08.16c-.01.06-.02.12-.02.19,0,.13.03.24.08.33.06.09.18.17.36.25l.67.29c.16.07.3.15.4.22.1.08.19.16.25.25.06.09.1.19.13.3.02.11.04.23.04.36,0,.45-.13.78-.39.99-.26.21-.63.31-1.09.31s-.84-.11-1.05-.32-.32-.52-.32-.91v-.17h.86v.13Z"/><path class="cls-1" d="M72.74,13.9h-.85v-.56h.08c.29,0,.51-.05.68-.16s.27-.28.32-.52h.64v4.25h-.86v-3Z"/><path class="cls-1" d="M74.66,14.07c.02-.27.07-.51.16-.72s.22-.38.4-.5c.18-.13.42-.19.74-.19.26,0,.47.04.64.11.17.07.31.19.41.36.1.16.17.38.22.64.04.26.06.58.06.96,0,.3-.01.58-.03.85-.02.27-.07.51-.16.72s-.22.38-.4.5c-.18.12-.42.18-.74.18-.26,0-.47-.03-.64-.1s-.31-.18-.41-.35c-.1-.16-.17-.38-.22-.64s-.06-.58-.06-.96c0-.3,0-.58.03-.85ZM75.52,15.76c.01.17.04.3.08.4.04.1.08.17.14.2.06.04.14.05.23.05s.17-.02.23-.07c.06-.05.11-.12.14-.23.03-.11.06-.26.07-.44.01-.18.02-.41.02-.68v-.46c0-.27,0-.49-.02-.66-.01-.17-.04-.3-.08-.4-.04-.1-.08-.17-.14-.2-.06-.04-.14-.05-.23-.05-.1,0-.17.02-.23.07-.06.05-.11.12-.14.23-.03.11-.06.26-.07.44-.01.18-.02.41-.02.68v.46c0,.27,0,.49.02.66Z"/><path class="cls-1" d="M77.54,14.07c.02-.27.07-.51.16-.72s.22-.38.4-.5c.18-.13.42-.19.74-.19.26,0,.47.04.64.11.17.07.31.19.41.36.1.16.17.38.22.64.04.26.06.58.06.96,0,.3-.01.58-.03.85-.02.27-.07.51-.16.72s-.22.38-.4.5c-.18.12-.42.18-.74.18-.26,0-.47-.03-.64-.1s-.31-.18-.41-.35c-.1-.16-.17-.38-.22-.64s-.06-.58-.06-.96c0-.3,0-.58.03-.85ZM78.4,15.76c.01.17.04.3.08.4.04.1.08.17.14.2.06.04.14.05.23.05s.17-.02.23-.07c.06-.05.11-.12.14-.23.03-.11.06-.26.07-.44.01-.18.02-.41.02-.68v-.46c0-.27,0-.49-.02-.66-.01-.17-.04-.3-.08-.4-.04-.1-.08-.17-.14-.2-.06-.04-.14-.05-.23-.05-.1,0-.17.02-.23.07-.06.05-.11.12-.14.23-.03.11-.06.26-.07.44-.01.18-.02.41-.02.68v.46c0,.27,0,.49.02.66Z"/><path class="cls-1" d="M80.48,13.3c.02-.14.07-.26.13-.36.07-.1.16-.17.28-.21.12-.05.27-.07.45-.07s.34.02.46.07c.12.05.21.12.27.21.07.1.11.22.13.36.02.14.04.31.04.5s-.01.36-.04.5c-.02.14-.07.26-.13.36-.07.1-.16.17-.27.21-.12.05-.27.07-.46.07s-.33-.02-.45-.07c-.12-.05-.21-.12-.28-.21-.07-.1-.11-.22-.13-.36-.02-.14-.04-.31-.04-.5s.01-.36.04-.5ZM81.12,14.31c.03.12.1.18.22.18s.19-.06.22-.18c.03-.12.04-.3.04-.54,0-.22-.01-.38-.04-.5-.03-.11-.1-.17-.22-.17s-.19.06-.22.17c-.03.11-.04.28-.04.5,0,.24.01.42.04.54ZM84.09,12.55l-2.44,4.52h-.53l2.44-4.52h.53ZM83.03,15.34c.02-.14.07-.26.13-.36.07-.1.16-.17.28-.21.12-.05.27-.07.45-.07s.34.02.46.07c.12.05.21.12.27.21.07.1.11.22.13.36.02.14.04.31.04.5s-.01.37-.04.51c-.02.14-.07.26-.13.35-.07.09-.16.16-.27.2-.12.04-.27.06-.46.06s-.34-.02-.45-.06c-.12-.04-.21-.11-.28-.2-.07-.09-.11-.21-.13-.35-.02-.14-.04-.31-.04-.51s.01-.36.04-.5ZM83.67,16.35c.03.12.1.18.22.18s.19-.06.22-.18c.03-.12.04-.3.04-.54,0-.22-.01-.38-.04-.5-.03-.11-.1-.17-.22-.17s-.19.06-.22.17c-.03.11-.04.28-.04.5,0,.24.01.42.04.54Z"/><path d="M13.19,15.97c-.68-.68-1.03-1.51-1.03-2.48s.34-1.79,1.03-2.48,1.51-1.03,2.48-1.03,1.79.34,2.48,1.03,1.03,1.51,1.03,2.48-.34,1.79-1.03,2.48-1.51,1.03-2.48,1.03-1.79-.34-2.48-1.03ZM16.73,14.56c.29-.29.44-.65.44-1.06s-.15-.77-.44-1.06c-.29-.29-.65-.44-1.06-.44s-.77.15-1.06.44-.44.65-.44,1.06.15.77.44,1.06.65.44,1.06.44.77-.15,1.06-.44ZM15.67,30l-6-6c-.33-.33-.58-.71-.75-1.13s-.25-.88-.25-1.38c0-.98.34-1.81,1.01-2.49s1.5-1.01,2.49-1.01c.48,0,.93.09,1.34.28s.78.44,1.11.78l1.05,1.05,1.05-1.05c.33-.33.7-.59,1.11-.78s.85-.28,1.34-.28c.98,0,1.81.34,2.49,1.01s1.01,1.5,1.01,2.49c0,.5-.08.96-.25,1.38s-.42.79-.75,1.13l-6,6ZM15.67,27.15l4.55-4.55c.15-.15.26-.32.34-.51s.11-.39.11-.59c0-.4-.14-.75-.43-1.05s-.64-.45-1.08-.45c-.2,0-.38.03-.54.09s-.31.16-.46.31l-2.5,2.5-2.5-2.5c-.1-.1-.23-.19-.39-.28s-.36-.13-.61-.13c-.43,0-.79.15-1.08.45s-.43.65-.43,1.05c0,.2.04.39.13.56s.19.34.33.49l4.55,4.6Z"/></svg>